<?xml version="1.0" encoding="utf-8"?>
<!DOCTYPE svg PUBLIC "-//W3C//DTD SVG 1.1//EN" "http://www.w3.org/Graphics/SVG/1.1/DTD/svg11.dtd">

<svg version="1.1"
     xmlns="http://www.w3.org/2000/svg"
     xmlns:xlink="http://www.w3.org/1999/xlink"
     width="45"
     height="45"
     viewBox="0 0 45 45">
       
  <defs>
    <path id="circle-base" d="M22.5244755,34 C20.6153846,34 19,35.5774648 19,37.5492958 C19,39.4225353 20.6153846,41.0000001 22.5244755,41.0000001 C24.4335664,41.0000001 26,39.3732395 26,37.5492958 C26,35.5774648 24.4335664,34 22.5244755,34 L22.5244755,34 L22.5244755,34 Z"></path>
    <path id="signal-bottom" d="M17.35,31.5875 C20.15,28.6375 24.9,28.6375 27.75,31.5875 L31.2,28.0875 C26.35,23.3375 18.6,23.3375 13.85,28.0875 L17.35,31.5875 L17.35,31.5875 Z"></path>
    <path id="signal-middle" d="M10.35,24.7375 C17,17.9875 27.9,17.9875 34.6,24.7375 L38.1,21.2375 C29.45,12.5875 15.45,12.5875 6.85,21.2375 L10.35,24.7375 L10.35,24.7375 Z"></path>
    <path id="signal-top" d="M3.45,17.7375 C13.95,7.2375 31,7.2375 41.5,17.7375 L45,14.3375 C32.5,1.8875 12.45,1.8875 0,14.3375 L3.45,17.7375 L3.45,17.7375 Z"></path>

    <mask id="mask-cutout">
      <rect width="45" height="45" fill="#000" />
      <use xlink:href="#circle-base" fill="#fff" />
      <use xlink:href="#signal-bottom" fill="#fff" />
      <use xlink:href="#signal-middle" fill="#fff" />
      <use xlink:href="#signal-top" fill="#fff" />
      <line x1="6.5" y1="38.5" x2="41" y2="6" stroke="#000" stroke-width="8.5" />
    </mask>
    
  </defs>

  <use xlink:href="#circle-base" mask="url(#mask-cutout)" fill="#999" />
  <use xlink:href="#signal-bottom" mask="url(#mask-cutout)" fill="#999" />
  <use xlink:href="#signal-middle" mask="url(#mask-cutout)" fill="#999" />
  <use xlink:href="#signal-top" mask="url(#mask-cutout)" fill="#999" />
  
  <line x1="6.5" y1="38.5" x2="41" y2="6" stroke="#d92d21" stroke-width="5.5" />

</svg>
